<?xml version="1.0" standalone="no"?> <!DOCTYPE svg PUBLIC "-//W3C//DTD SVG 1.1//EN" "http://www.w3.org/Graphics/SVG/1.1/DTD/svg11.dtd"> <svg xmlns="http://www.w3.org/2000/svg" width="951" height="1098" viewBox="0 0 951 1098" fill="none"> <path d="M67.3916 686.089H852.82V862.335H67.3916V686.089Z" fill="#F88A24"/> <path d="M135.145 509.844H785.057V686.089H135.145V509.844Z" fill="#D8A47F"/> <path d="M200.948 333.608H719.245V509.853H200.948V333.608Z" fill="#F88A24"/> <path d="M281.891 157.362H638.311V333.608H281.891V157.362Z" fill="#D8A47F"/> <path d="M595.609 862.335H324.594L369.763 157.362H550.439L595.609 862.335Z" fill="#F5E0B7"/> <path d="M414.932 241.156H505.27C509.463 241.156 513.484 239.415 516.449 236.317C519.414 233.218 521.079 229.016 521.079 224.633C521.079 220.251 519.414 216.049 516.449 212.95C513.484 209.851 509.463 208.111 505.27 208.111H414.932C410.739 208.111 406.718 209.851 403.753 212.95C400.788 216.049 399.123 220.251 399.123 224.633C399.123 229.016 400.788 233.218 403.753 236.317C406.718 239.415 410.739 241.156 414.932 241.156V241.156Z" fill="#484349"/> <path d="M505.27 278.922H414.932C410.739 278.922 406.718 280.663 403.753 283.762C400.788 286.86 399.123 291.063 399.123 295.445C399.123 299.827 400.788 304.03 403.753 307.128C406.718 310.227 410.739 311.968 414.932 311.968H505.27C509.463 311.968 513.484 310.227 516.449 307.128C519.414 304.03 521.079 299.827 521.079 295.445C521.079 291.063 519.414 286.86 516.449 283.762C513.484 280.663 509.463 278.922 505.27 278.922Z" fill="#484349"/> <path d="M505.27 349.734H414.932C410.739 349.734 406.718 351.475 403.753 354.573C400.788 357.672 399.123 361.875 399.123 366.257C399.123 370.639 400.788 374.841 403.753 377.94C406.718 381.039 410.739 382.779 414.932 382.779H505.27C509.463 382.779 513.484 381.039 516.449 377.94C519.414 374.841 521.079 370.639 521.079 366.257C521.079 361.875 519.414 357.672 516.449 354.573C513.484 351.475 509.463 349.734 505.27 349.734Z" fill="#484349"/> <path d="M505.27 420.546H414.932C410.739 420.546 406.718 422.286 403.753 425.385C400.788 428.484 399.123 432.686 399.123 437.068C399.123 441.45 400.788 445.653 403.753 448.752C406.718 451.85 410.739 453.591 414.932 453.591H505.27C509.463 453.591 513.484 451.85 516.449 448.752C519.414 445.653 521.079 441.45 521.079 437.068C521.079 432.686 519.414 428.484 516.449 425.385C513.484 422.286 509.463 420.546 505.27 420.546Z" fill="#484349"/> <path d="M505.27 491.357H414.932C410.739 491.357 406.718 493.098 403.753 496.197C400.788 499.295 399.123 503.498 399.123 507.88C399.123 512.262 400.788 516.465 403.753 519.563C406.718 522.662 410.739 524.403 414.932 524.403H505.27C509.463 524.403 513.484 522.662 516.449 519.563C519.414 516.465 521.079 512.262 521.079 507.88C521.079 503.498 519.414 499.295 516.449 496.197C513.484 493.098 509.463 491.357 505.27 491.357V491.357Z" fill="#484349"/> <path d="M505.27 562.169H414.932C410.739 562.169 406.718 563.91 403.753 567.008C400.788 570.107 399.123 574.309 399.123 578.692C399.123 583.074 400.788 587.276 403.753 590.375C406.718 593.473 410.739 595.214 414.932 595.214H505.27C509.463 595.214 513.484 593.473 516.449 590.375C519.414 587.276 521.079 583.074 521.079 578.692C521.079 574.309 519.414 570.107 516.449 567.008C513.484 563.91 509.463 562.169 505.27 562.169V562.169Z" fill="#484349"/> <path d="M505.27 632.98H414.932C410.739 632.98 406.718 634.721 403.753 637.82C400.788 640.918 399.123 645.121 399.123 649.503C399.123 653.885 400.788 658.088 403.753 661.186C406.718 664.285 410.739 666.026 414.932 666.026H505.27C509.463 666.026 513.484 664.285 516.449 661.186C519.414 658.088 521.079 653.885 521.079 649.503C521.079 645.121 519.414 640.918 516.449 637.82C513.484 634.721 509.463 632.98 505.27 632.98V632.98Z" fill="#484349"/> <path d="M505.27 703.792H414.932C410.739 703.792 406.718 705.533 403.753 708.632C400.788 711.73 399.123 715.933 399.123 720.315C399.123 724.697 400.788 728.9 403.753 731.998C406.718 735.097 410.739 736.838 414.932 736.838H505.27C509.463 736.838 513.484 735.097 516.449 731.998C519.414 728.9 521.079 724.697 521.079 720.315C521.079 715.933 519.414 711.73 516.449 708.632C513.484 705.533 509.463 703.792 505.27 703.792V703.792Z" fill="#484349"/> <path d="M505.27 774.604H414.932C410.739 774.604 406.718 776.345 403.753 779.443C400.788 782.542 399.123 786.744 399.123 791.127C399.123 795.509 400.788 799.711 403.753 802.81C406.718 805.908 410.739 807.649 414.932 807.649H505.27C509.463 807.649 513.484 805.908 516.449 802.81C519.414 799.711 521.079 795.509 521.079 791.127C521.079 786.744 519.414 782.542 516.449 779.443C513.484 776.345 509.463 774.604 505.27 774.604V774.604Z" fill="#484349"/> <path d="M328.361 60.9169H591.85V157.362H328.361V60.9169Z" fill="#484349"/> <path d="M281.891 0H638.311V60.9169H281.891V0Z" fill="#F5E0B7"/> <path d="M890.716 845.812H29.4856C25.2928 845.812 21.2717 847.553 18.3069 850.651C15.3421 853.75 13.6765 857.953 13.6765 862.335C13.6765 866.717 15.3421 870.919 18.3069 874.018C21.2717 877.117 25.2928 878.857 29.4856 878.857H890.716C894.909 878.857 898.93 877.117 901.895 874.018C904.86 870.919 906.526 866.717 906.526 862.335C906.526 857.953 904.86 853.75 901.895 850.651C898.93 847.553 894.909 845.812 890.716 845.812V845.812Z" fill="#484349"/> <path d="M21.4377 1080.18V963.278C21.4377 960.374 20.9415 958.195 19.949 956.743C18.9565 955.222 17.6993 954.15 16.1775 953.528C14.7219 952.836 13.1339 952.456 11.4136 952.387C9.69328 952.317 8.07222 952.248 6.55041 952.179C5.09476 952.041 3.8707 951.764 2.87821 951.349C1.88572 950.934 1.38948 950.07 1.38948 948.756C1.38948 947.857 1.78647 947.304 2.58046 947.096C3.44062 946.82 4.23461 946.682 4.96243 946.682H10.5204C12.1745 946.682 13.6632 946.751 14.9865 946.889C16.376 946.958 17.6663 947.062 18.8572 947.2C20.1144 947.338 21.3715 947.477 22.6287 947.615C23.952 947.684 25.4076 947.719 26.9956 947.719C30.2377 947.719 33.0829 947.65 35.531 947.511C37.9791 947.304 40.328 947.096 42.5776 946.889C44.8273 946.682 47.0769 946.509 49.3266 946.37C51.5762 946.163 54.0905 946.059 56.8694 946.059H63.5191C64.4454 946.059 65.2063 946.267 65.8018 946.682C66.3973 947.027 66.8605 947.235 67.1913 947.304C67.456 948.065 67.6214 948.48 67.6875 948.549C67.7537 948.618 67.7868 948.929 67.7868 949.482C67.7868 950.243 67.1913 950.865 66.0003 951.349C64.8755 951.833 63.5522 952.248 62.0304 952.594C60.5747 952.871 59.086 953.113 57.5642 953.32C56.0424 953.458 54.9506 953.631 54.289 953.839C53.2303 954.046 52.1055 954.254 50.9145 954.461C49.7235 954.599 48.6318 954.876 47.6393 955.291C46.6468 955.637 45.8198 956.19 45.1581 956.951C44.4965 957.642 44.1656 958.645 44.1656 959.959V1083.19C44.1656 1084.64 44.6619 1085.78 45.6544 1086.61C46.713 1087.37 48.0032 1087.96 49.525 1088.37C51.0469 1088.72 52.701 1088.96 54.4875 1089.1C56.3401 1089.24 58.0273 1089.41 59.5492 1089.62C61.071 1089.83 62.3281 1090.17 63.3206 1090.66C64.3793 1091.07 64.9086 1091.76 64.9086 1092.73C64.9086 1093.49 64.7101 1093.98 64.3131 1094.18C63.9161 1094.39 63.5522 1094.56 63.2214 1094.7C62.295 1094.98 61.1702 1095.22 59.8469 1095.43C58.5236 1095.63 57.3657 1095.74 56.3732 1095.74C53.9912 1095.74 51.8078 1095.67 49.8228 1095.53C47.8378 1095.39 45.919 1095.25 44.0664 1095.12C42.2137 1094.98 40.3611 1094.84 38.5085 1094.7C36.6558 1094.56 34.6378 1094.49 32.4543 1094.49C31.3956 1094.49 29.9069 1094.53 27.9881 1094.6C26.1355 1094.67 24.1174 1094.77 21.9339 1094.91C19.8166 1094.98 17.6993 1095.05 15.582 1095.12C13.4647 1095.19 11.6452 1095.22 10.1234 1095.22H2.28272C1.95189 1095.22 1.48873 1095.05 0.893237 1094.7C0.297746 1094.36 0 1093.8 0 1093.04C0 1091.66 0.562409 1090.83 1.68723 1090.55C3.14287 1090.14 4.4331 1089.83 5.55792 1089.62C6.7489 1089.34 7.97297 1089.1 9.23012 1088.89C10.4873 1088.62 11.8767 1088.34 13.3986 1088.06C14.9204 1087.79 16.8061 1087.41 19.0557 1086.92C20.1805 1086.58 20.8422 1085.82 21.0407 1084.64C21.3054 1083.46 21.4377 1081.98 21.4377 1080.18Z" fill="black"/> <path d="M152.347 963.278V1083.6C152.347 1085.19 153.174 1086.4 154.828 1087.23C156.548 1088.06 158.5 1088.69 160.683 1089.1C162.933 1089.51 165.15 1089.83 167.333 1090.03C169.517 1090.17 171.105 1090.34 172.097 1090.55C172.693 1091.31 173.023 1091.87 173.09 1092.21C173.222 1092.49 173.288 1092.94 173.288 1093.56C173.288 1094.18 173.09 1094.7 172.693 1095.12C172.362 1095.53 171.932 1095.84 171.402 1096.05C170.873 1096.33 170.278 1096.53 169.616 1096.67C169.02 1096.81 168.458 1096.88 167.929 1096.88C166.605 1096.88 164.587 1096.74 161.874 1096.46C159.162 1096.19 156.283 1095.88 153.24 1095.53C150.262 1095.25 147.351 1094.98 144.506 1094.7C141.727 1094.42 139.577 1094.29 138.055 1094.29C135.474 1094.29 132.993 1094.32 130.611 1094.39C128.229 1094.46 125.748 1094.74 123.168 1095.22C122.638 1095.22 121.778 1095.32 120.587 1095.53C119.462 1095.81 118.205 1096.08 116.816 1096.36C115.426 1096.64 114.037 1096.88 112.647 1097.09C111.324 1097.36 110.232 1097.5 109.372 1097.5C108.71 1097.5 108.214 1097.19 107.883 1096.57C107.552 1096.02 107.387 1095.57 107.387 1095.22C107.387 1094.32 107.85 1093.59 108.776 1093.04C109.769 1092.49 110.596 1092.14 111.258 1092C111.655 1091.8 112.382 1091.55 113.441 1091.28C114.566 1091 115.79 1090.73 117.113 1090.45C118.437 1090.1 119.694 1089.79 120.885 1089.51C122.142 1089.17 123.134 1088.86 123.862 1088.58C124.921 1088.3 125.847 1088.03 126.641 1087.75C127.435 1087.41 128.097 1086.99 128.626 1086.51C129.156 1085.95 129.553 1085.26 129.817 1084.43C130.082 1083.53 130.214 1082.39 130.214 1081.01V967.427C130.214 966.874 130.181 966.286 130.115 965.664C130.049 964.972 129.916 964.35 129.718 963.797C129.519 963.243 129.222 962.794 128.825 962.448C128.428 962.102 127.865 961.93 127.137 961.93H104.906C101.928 961.93 99.3809 962.206 97.2636 962.759C95.1463 963.243 93.1944 964.039 91.408 965.145C89.2245 966.321 87.0079 967.911 84.7583 969.917C82.5748 971.922 80.8876 974.031 79.6966 976.244C79.4981 976.59 79.2996 977.074 79.1011 977.696C78.9688 978.319 78.7703 978.941 78.5056 979.563C78.241 980.186 77.9432 980.739 77.6124 981.223C77.2816 981.707 76.8846 981.949 76.4214 981.949C76.1568 981.949 75.859 981.742 75.5282 981.327C75.1974 980.912 74.8665 980.393 74.5357 979.771C74.2049 979.079 73.9071 978.353 73.6425 977.592C73.444 976.763 73.3447 975.967 73.3447 975.207C73.3447 973.685 73.6425 972.095 74.2379 970.435C74.8996 968.776 75.6936 967.012 76.6199 965.145C77.5462 963.278 78.5387 961.273 79.5974 959.129C80.656 956.916 81.6154 954.496 82.4756 951.868V950.001C82.4756 949.517 82.5748 948.998 82.7733 948.445C83.1042 947.823 83.5673 947.477 84.1628 947.408C84.8245 947.269 85.5192 947.2 86.247 947.2C86.8425 947.2 87.3388 947.408 87.7358 947.823C88.1328 948.168 88.5297 948.583 88.9267 949.067C89.3237 949.551 89.7538 950.07 90.217 950.623C90.7463 951.107 91.3749 951.453 92.1027 951.66C92.8967 951.868 94.4185 952.145 96.6681 952.49C98.9178 952.767 101.994 953.044 105.898 953.32C109.868 953.597 114.698 953.839 120.389 954.046C126.079 954.254 132.795 954.357 140.536 954.357C142.389 954.357 144.506 954.323 146.888 954.254C149.27 954.115 151.718 953.977 154.232 953.839C156.813 953.7 159.36 953.597 161.874 953.528C164.389 953.389 166.705 953.32 168.822 953.32C170.476 953.32 171.965 953.389 173.288 953.528C174.611 953.666 176.034 953.873 177.556 954.15C178.35 954.288 179.21 954.427 180.136 954.565C181.063 954.703 181.989 954.841 182.915 954.98C183.841 955.049 184.702 955.118 185.496 955.187C186.29 955.256 186.918 955.291 187.381 955.291C188.638 955.291 189.267 954.565 189.267 953.113C189.267 952.352 189.499 951.626 189.962 950.934C190.557 950.174 191.351 949.275 192.344 948.237C193.336 947.2 194.196 946.682 194.924 946.682C195.454 946.682 196.016 947.062 196.611 947.823C197.273 948.583 197.902 949.517 198.497 950.623C199.159 951.66 199.754 952.732 200.284 953.839C200.879 954.876 201.375 955.706 201.772 956.328C202.236 957.435 202.566 958.783 202.765 960.374C202.963 961.895 203.195 963.071 203.46 963.9C203.724 964.523 204.287 965.525 205.147 966.909C206.073 968.292 206.999 969.778 207.926 971.369C208.852 972.89 209.679 974.377 210.407 975.829C211.201 977.281 211.598 978.422 211.598 979.252C211.598 981.05 210.837 981.949 209.315 981.949C208.389 981.949 207.264 981.396 205.941 980.289C204.684 979.183 203.327 977.904 201.872 976.451C200.482 974.999 199.06 973.547 197.604 972.095C196.148 970.574 194.792 969.398 193.535 968.568C192.675 968.015 191.484 967.393 189.962 966.701C188.506 966.01 186.951 965.318 185.297 964.626C183.643 963.935 182.022 963.347 180.434 962.863C178.846 962.379 177.49 962.068 176.365 961.93C174.578 961.584 172.726 961.411 170.807 961.411C168.888 961.342 167.035 961.307 165.249 961.307H159.592C159.393 961.307 158.897 961.342 158.103 961.411C157.375 961.48 156.581 961.618 155.721 961.826C154.861 961.964 154.067 962.172 153.339 962.448C152.677 962.656 152.347 962.932 152.347 963.278Z" fill="black"/> <path d="M251.595 1085.16C251.264 1085.78 250.934 1086.33 250.603 1086.82C250.338 1087.23 250.206 1087.75 250.206 1088.37C250.206 1089.2 250.735 1089.62 251.794 1089.62H299.334C300.657 1089.62 302.08 1089.58 303.601 1089.51C305.189 1089.45 306.844 1089.2 308.564 1088.79C310.086 1088.51 311.475 1088.2 312.732 1087.86C313.989 1087.44 315.18 1086.99 316.305 1086.51C317.43 1085.95 318.555 1085.33 319.68 1084.64C320.805 1083.95 322.029 1083.15 323.352 1082.25C325.469 1080.73 327.421 1079.04 329.208 1077.17C330.994 1075.3 332.582 1073.4 333.972 1071.47C335.427 1069.53 336.684 1067.66 337.743 1065.87C338.802 1064 339.728 1062.3 340.522 1060.78C340.72 1060.37 340.919 1059.88 341.117 1059.33C341.316 1058.71 341.514 1058.15 341.713 1057.67C341.978 1057.12 342.242 1056.67 342.507 1056.32C342.838 1055.91 343.202 1055.7 343.599 1055.7C344.062 1055.7 344.326 1056.01 344.393 1056.63C344.525 1057.26 344.591 1057.81 344.591 1058.29L338.438 1089.83C338.239 1091.14 337.975 1092.18 337.644 1092.94C337.313 1093.63 336.85 1094.15 336.254 1094.49C335.659 1094.84 334.931 1095.05 334.071 1095.12C333.211 1095.19 332.152 1095.22 330.895 1095.22H222.218C221.159 1095.22 220.497 1094.98 220.233 1094.49C219.968 1094.01 219.836 1093.28 219.836 1092.32C219.836 1092.04 219.968 1091.55 220.233 1090.86C220.497 1090.1 220.994 1089.17 221.721 1088.06L306.48 953.32C306.612 953.113 306.744 952.94 306.877 952.802C307.009 952.594 307.075 952.317 307.075 951.972C307.075 951.626 306.943 951.349 306.678 951.142C306.413 950.865 306.083 950.727 305.686 950.727H298.838C296.191 950.727 293.048 950.762 289.409 950.831C285.77 950.9 281.965 951.004 277.995 951.142C274.092 951.211 270.122 951.349 266.085 951.557C262.116 951.695 258.443 951.868 255.069 952.075C251.761 952.283 248.882 952.525 246.434 952.802C243.986 953.078 242.332 953.355 241.472 953.631C239.487 954.323 237.7 955.498 236.112 957.158C234.591 958.749 233.168 960.616 231.845 962.759C230.588 964.903 229.43 967.185 228.371 969.605C227.379 972.026 226.452 974.342 225.592 976.555C224.732 978.768 223.938 980.739 223.21 982.468C222.548 984.197 221.92 985.476 221.324 986.306C220.861 986.79 220.464 987.032 220.133 987.032C219.935 987.032 219.836 986.651 219.836 985.891C219.902 984.646 220.067 983.021 220.332 981.016C220.663 978.941 221.027 976.694 221.424 974.273C221.821 971.784 222.218 969.225 222.615 966.597C223.078 963.9 223.508 961.342 223.905 958.921C224.302 956.432 224.633 954.185 224.897 952.179C225.228 950.105 225.427 948.48 225.493 947.304C225.493 946.958 225.724 946.751 226.188 946.682C226.717 946.543 227.048 946.474 227.18 946.474C242.729 946.128 258.146 945.783 273.43 945.437C288.714 945.022 304.032 944.814 319.382 944.814H333.773C334.104 944.814 334.501 945.195 334.964 945.955C335.427 946.716 335.659 947.235 335.659 947.511C335.659 948.272 335.394 949.136 334.865 950.105C334.335 951.004 333.773 952.006 333.178 953.113L251.595 1085.16Z" fill="black"/> <path d="M424.685 1035.68C426.14 1035.68 426.868 1035.02 426.868 1033.71C426.868 1033.09 426.835 1032.6 426.769 1032.26C426.372 1030.94 425.81 1029.04 425.082 1026.55C424.354 1024.06 423.527 1021.19 422.601 1017.94C421.674 1014.69 420.649 1011.23 419.524 1007.57C418.465 1003.84 417.373 1000.1 416.249 996.367C415.19 992.633 414.131 989.037 413.073 985.58C412.014 982.053 411.088 978.872 410.294 976.037C410.161 975.898 409.963 975.656 409.698 975.31C409.5 974.965 409.169 974.792 408.706 974.792C408.11 974.792 407.647 975.38 407.316 976.555C406.721 978.284 405.894 980.739 404.835 983.92C403.843 987.101 402.718 990.628 401.461 994.5C400.203 998.373 398.88 1002.38 397.491 1006.53C396.167 1010.68 394.91 1014.55 393.719 1018.15C392.528 1021.68 391.503 1024.75 390.642 1027.38C389.782 1029.94 389.22 1031.63 388.955 1032.46C388.823 1032.67 388.757 1032.95 388.757 1033.29C388.757 1034.88 389.782 1035.68 391.833 1035.68H424.685ZM342.904 1092.52C342.904 1091.35 343.499 1090.66 344.69 1090.45C345.815 1090.24 347.536 1089.93 349.851 1089.51C354.152 1088.55 357.725 1086.58 360.57 1083.6C363.415 1080.63 365.797 1077.24 367.716 1073.44C369.635 1069.56 371.223 1065.55 372.48 1061.4C373.803 1057.26 375.06 1053.52 376.251 1050.2L401.659 977.489C402.255 975.691 402.784 974.446 403.247 973.755C403.776 972.994 404.206 972.372 404.537 971.887C404.868 971.334 405.133 970.712 405.331 970.02C405.53 969.329 405.629 968.119 405.629 966.39C405.629 965.629 405.53 964.938 405.331 964.315C405.133 963.693 404.901 963.071 404.637 962.448C404.438 961.757 404.24 961.031 404.041 960.27C403.843 959.44 403.743 958.437 403.743 957.262C405.464 957.054 407.085 956.778 408.606 956.432C410.194 956.017 411.65 955.326 412.973 954.357C413.701 953.804 414.33 953.078 414.859 952.179C415.388 951.211 415.951 950.277 416.546 949.378C417.142 948.48 417.837 947.719 418.631 947.096C419.425 946.405 420.483 946.059 421.807 946.059C421.939 946.059 422.071 946.094 422.204 946.163C422.336 946.232 422.468 946.44 422.601 946.785C422.733 947.131 423.13 948.48 423.792 950.831C424.519 953.182 425.446 956.328 426.57 960.27C427.761 964.142 429.085 968.637 430.54 973.755C432.062 978.872 433.65 984.335 435.304 990.144C437.025 995.883 438.778 1001.86 440.565 1008.09C442.417 1014.31 444.237 1020.47 446.023 1026.55C447.81 1032.57 449.497 1038.41 451.085 1044.08C452.739 1049.68 454.261 1054.8 455.65 1059.43C457.04 1064.07 458.231 1068.11 459.223 1071.57C460.216 1074.96 460.944 1077.45 461.407 1079.04C462.135 1081.32 463.292 1083.33 464.88 1085.05C466.468 1086.78 468.222 1087.96 470.141 1088.58C472.059 1089.27 473.78 1089.65 475.302 1089.72C476.89 1089.79 478.213 1089.86 479.271 1089.93C480.396 1090 481.256 1090.24 481.852 1090.66C482.447 1091.07 482.745 1091.94 482.745 1093.25C482.745 1093.66 482.613 1094.01 482.348 1094.29C482.084 1094.49 481.753 1094.67 481.356 1094.81C480.959 1094.94 480.529 1095.05 480.065 1095.12C479.668 1095.12 479.338 1095.15 479.073 1095.22H470.141C469.611 1095.22 469.049 1095.22 468.453 1095.22C467.858 1095.15 466.932 1095.12 465.674 1095.12C464.483 1095.05 462.829 1095.01 460.712 1095.01C458.595 1094.94 455.783 1094.91 452.276 1094.91C448.571 1094.91 444.931 1094.98 441.359 1095.12C437.852 1095.19 434.279 1095.29 430.64 1095.43H425.578C425.049 1095.43 424.453 1095.39 423.792 1095.32C423.13 1095.32 422.501 1095.25 421.906 1095.12C421.31 1094.98 420.814 1094.74 420.417 1094.39C420.02 1094.04 419.822 1093.56 419.822 1092.94C419.822 1092.38 420.086 1091.94 420.616 1091.59C421.145 1091.24 421.773 1090.97 422.501 1090.76C423.229 1090.55 423.99 1090.41 424.784 1090.34C425.578 1090.21 426.24 1090.1 426.769 1090.03C429.019 1089.69 431.202 1089.31 433.319 1088.89C435.437 1088.41 437.521 1087.96 439.572 1087.54C441.094 1087.06 441.855 1086.2 441.855 1084.95C441.855 1084.81 441.855 1084.61 441.855 1084.33C441.855 1083.98 441.789 1083.67 441.656 1083.4L430.838 1046.26C430.706 1045.71 430.342 1045.08 429.746 1044.39C429.217 1043.7 428.555 1043.36 427.761 1043.36H387.467C386.54 1043.36 385.912 1043.53 385.581 1043.87C385.25 1044.15 384.952 1044.46 384.688 1044.81L379.527 1059.33C378.666 1061.68 378.071 1063.83 377.74 1065.76C377.409 1067.63 377.244 1069.43 377.244 1071.16C377.244 1073.23 377.442 1075.51 377.839 1078C378.17 1080.49 378.964 1082.43 380.221 1083.81C381.479 1085.19 382.934 1086.23 384.588 1086.92C386.309 1087.61 388.128 1088.1 390.047 1088.37C391.966 1088.58 393.719 1088.79 395.307 1089C396.895 1089.2 398.185 1089.51 399.178 1089.93C400.237 1090.28 400.766 1090.97 400.766 1092C400.766 1092.63 400.567 1093.28 400.17 1093.98C399.84 1094.67 399.012 1095.08 397.689 1095.22H393.421C389.518 1095.08 385.713 1094.94 382.008 1094.81C378.369 1094.6 374.564 1094.49 370.594 1094.49C366.227 1094.49 362.257 1094.63 358.684 1094.91C355.178 1095.12 351.638 1095.22 348.065 1095.22H346.775C344.194 1095.22 342.904 1094.32 342.904 1092.52Z" fill="black"/> <path d="M511.527 1094.29C507.954 1094.29 504.547 1094.46 501.305 1094.81C498.063 1095.08 494.49 1095.22 490.586 1095.22H486.616C486.02 1095.22 485.59 1094.84 485.326 1094.08C485.061 1093.25 484.929 1092.63 484.929 1092.21C484.929 1091.52 484.995 1090.93 485.127 1090.45C485.326 1089.9 485.656 1089.58 486.12 1089.51C486.847 1089.31 487.708 1089.13 488.7 1089C489.693 1088.86 490.718 1088.75 491.777 1088.69C492.835 1088.55 493.828 1088.48 494.754 1088.48C495.747 1088.41 496.607 1088.37 497.335 1088.37C498.923 1088.37 500.445 1087.99 501.9 1087.23C503.422 1086.47 504.646 1085.54 505.572 1084.43C506.234 1083.53 506.796 1082.67 507.26 1081.84C507.723 1080.94 508.12 1079.73 508.451 1078.21C508.848 1076.69 509.145 1074.72 509.344 1072.3C509.608 1069.88 509.873 1066.69 510.138 1062.75L514.802 973.755C514.802 971.611 514.571 969.467 514.108 967.323C513.645 965.111 512.884 963.071 511.825 961.203C510.833 959.267 509.509 957.608 507.855 956.225C506.201 954.841 504.183 953.873 501.801 953.32C501.602 953.251 501.073 953.182 500.213 953.113C499.353 952.974 498.426 952.836 497.434 952.698C496.441 952.559 495.515 952.456 494.655 952.387C493.795 952.248 493.232 952.179 492.968 952.179C491.644 951.903 490.586 951.626 489.792 951.349C489.064 951.073 488.7 950.208 488.7 948.756C488.7 948.134 488.733 947.546 488.799 946.993C488.866 946.37 489.13 946.059 489.593 946.059H493.663C495.383 946.059 496.971 946.128 498.426 946.267C499.948 946.405 501.47 946.578 502.992 946.785C504.514 946.993 506.102 947.166 507.756 947.304C509.476 947.442 511.362 947.511 513.413 947.511H522.842C523.966 947.511 524.992 947.442 525.918 947.304C526.911 947.096 528.201 946.993 529.789 946.993C530.98 946.993 532.237 947.166 533.56 947.511C534.884 947.788 535.843 948.41 536.439 949.378C537.563 950.762 538.523 952.317 539.317 954.046C540.111 955.706 540.806 957.469 541.401 959.336L574.749 1051.03C575.013 1051.72 575.278 1052.31 575.543 1052.8C575.807 1053.21 576.105 1053.42 576.436 1053.42C576.899 1053.42 577.263 1053.14 577.528 1052.59C577.792 1052.03 577.991 1051.52 578.123 1051.03L615.639 948.237C616.036 947.477 616.598 946.993 617.326 946.785C618.12 946.578 618.98 946.474 619.907 946.474C623.215 946.474 626.391 946.405 629.435 946.267C632.544 946.128 635.621 945.955 638.665 945.748C641.775 945.541 644.884 945.368 647.994 945.229C651.17 945.091 654.511 945.022 658.018 945.022C658.217 945.022 658.481 945.022 658.812 945.022C659.209 945.022 659.573 945.091 659.904 945.229C660.301 945.299 660.632 945.437 660.896 945.644C661.161 945.852 661.293 946.128 661.293 946.474C661.293 947.442 660.896 948.445 660.102 949.482C659.308 950.45 658.316 950.934 657.125 950.934C653.817 950.934 651.071 951.349 648.887 952.179C646.704 953.009 644.487 954.703 642.238 957.262C641.245 958.299 640.451 959.475 639.856 960.789C639.26 962.102 638.764 963.52 638.367 965.041C638.036 966.494 637.805 968.015 637.672 969.605C637.606 971.127 637.573 972.614 637.573 974.066L639.161 1084.85C639.624 1086.3 640.749 1087.3 642.535 1087.86C644.322 1088.41 646.307 1088.79 648.49 1089C650.674 1089.13 652.791 1089.27 654.842 1089.41C656.96 1089.48 658.581 1089.79 659.705 1090.34C660.499 1090.69 660.963 1091.14 661.095 1091.69C661.227 1092.18 661.293 1092.63 661.293 1093.04C661.293 1094.15 660.731 1094.84 659.606 1095.12C658.548 1095.32 657.092 1095.43 655.239 1095.43C653.122 1095.43 651.137 1095.39 649.284 1095.32C647.432 1095.25 645.579 1095.22 643.726 1095.22C641.94 1095.15 640.054 1095.08 638.069 1095.01C636.084 1094.94 633.868 1094.91 631.42 1094.91H616.235C614.316 1094.91 612.463 1094.94 610.677 1095.01C608.89 1095.01 607.104 1095.08 605.317 1095.22C603.2 1095.43 601.083 1095.53 598.965 1095.53C598.436 1095.53 597.874 1095.5 597.278 1095.43C596.749 1095.43 596.219 1095.32 595.69 1095.12C595.227 1094.91 594.83 1094.6 594.499 1094.18C594.234 1093.7 594.102 1093.08 594.102 1092.32C594.102 1090.93 594.929 1090.03 596.583 1089.62C598.237 1089.13 600.222 1088.89 602.538 1088.89H606.707C608.096 1088.89 609.386 1088.86 610.577 1088.79C611.835 1088.72 612.926 1088.51 613.853 1088.17C614.779 1087.82 615.507 1087.34 616.036 1086.71C616.632 1086.02 616.929 1085.09 616.929 1083.91L615.639 973.755C615.639 973.409 615.573 972.925 615.441 972.302C615.308 971.68 615.077 971.369 614.746 971.369C614.283 971.369 613.919 971.473 613.654 971.68C613.456 971.818 613.29 971.957 613.158 972.095L568.694 1093.04C568.43 1094.15 568.033 1094.7 567.503 1094.7C566.974 1094.7 566.511 1094.15 566.114 1093.04L521.849 971.058C521.651 970.228 521.254 969.813 520.658 969.813C520.393 969.813 520.162 969.882 519.963 970.02C519.831 970.159 519.765 970.504 519.765 971.058L517.184 1070.12C517.184 1070.95 517.218 1072.05 517.284 1073.44C517.416 1074.75 517.581 1076.13 517.78 1077.59C518.045 1079.04 518.342 1080.46 518.673 1081.84C519.07 1083.22 519.566 1084.4 520.162 1085.37C521.022 1086.82 522.312 1087.89 524.033 1088.58C525.819 1089.2 527.705 1089.65 529.69 1089.93C531.741 1090.14 533.759 1090.28 535.744 1090.34C537.795 1090.41 539.515 1090.55 540.905 1090.76C541.699 1090.83 542.228 1091.14 542.493 1091.69C542.824 1092.25 542.989 1092.83 542.989 1093.46C542.989 1093.87 542.757 1094.22 542.294 1094.49C541.897 1094.77 541.368 1095.01 540.706 1095.22C540.111 1095.36 539.416 1095.43 538.622 1095.43C537.828 1095.5 537.1 1095.53 536.439 1095.53C533.991 1095.53 531.708 1095.46 529.591 1095.32C527.473 1095.19 525.422 1095.05 523.437 1094.91C521.452 1094.77 519.5 1094.63 517.581 1094.49C515.663 1094.36 513.645 1094.29 511.527 1094.29Z" fill="black"/> <path d="M705.558 1073.64C705.558 1075.1 705.889 1076.38 706.551 1077.48C707.212 1078.59 708.006 1079.56 708.933 1080.39C709.859 1081.15 710.818 1081.8 711.811 1082.36C712.803 1082.91 713.597 1083.36 714.193 1083.71C714.788 1084.05 715.582 1084.4 716.575 1084.74C717.634 1085.09 718.758 1085.4 719.949 1085.68C721.14 1085.95 722.331 1086.2 723.522 1086.4C724.713 1086.54 725.772 1086.61 726.698 1086.61C727.228 1086.61 727.79 1086.65 728.385 1086.71C728.981 1086.78 729.543 1086.96 730.073 1087.23C730.602 1087.51 731.032 1087.89 731.363 1088.37C731.76 1088.79 731.958 1089.34 731.958 1090.03C731.958 1091.83 731.462 1093.08 730.47 1093.77C729.477 1094.39 728.385 1094.7 727.194 1094.7C718.659 1094.84 710.157 1094.98 701.688 1095.12C693.218 1095.19 684.65 1095.22 675.982 1095.22C674.659 1095.22 673.6 1095.08 672.806 1094.81C672.012 1094.53 671.615 1093.59 671.615 1092C671.615 1090.9 671.979 1090.07 672.707 1089.51C673.501 1088.96 674.493 1088.48 675.684 1088.06C677.471 1087.44 679.555 1086.82 681.937 1086.2C684.319 1085.5 686.602 1084.54 688.785 1083.29C690.969 1081.98 692.821 1080.21 694.343 1078C695.865 1075.72 696.692 1072.68 696.824 1068.87C697.42 1052.55 698.082 1036.37 698.809 1020.33C699.537 1004.29 699.901 987.931 699.901 971.265C699.901 970.09 699.769 969.087 699.504 968.257C699.239 967.358 698.842 966.528 698.313 965.768C697.85 965.007 697.288 964.281 696.626 963.589C695.964 962.898 695.236 962.137 694.442 961.307C694.112 960.961 693.549 960.477 692.755 959.855C691.961 959.163 691.068 958.437 690.075 957.677C689.083 956.916 688.024 956.121 686.9 955.291C685.775 954.461 684.683 953.666 683.624 952.905C682.632 952.283 681.739 951.799 680.945 951.453C680.217 951.107 679.522 950.831 678.86 950.623C678.199 950.347 677.537 950.105 676.875 949.897C676.214 949.621 675.486 949.309 674.692 948.964C674.096 948.756 673.799 948.41 673.799 947.926C673.799 947.788 673.832 947.615 673.898 947.408C673.964 947.131 674.229 946.993 674.692 946.993C677.339 946.785 680.481 946.682 684.121 946.682H688.388C691.697 946.682 695.104 946.751 698.611 946.889C702.184 946.958 706.154 946.993 710.521 946.993C711.447 946.993 712.208 947.408 712.803 948.237L782.277 1048.23C783.138 1049.41 784.064 1049.99 785.056 1049.99C786.181 1049.99 786.744 1049.41 786.744 1048.23V965.456C786.744 963.313 786.38 961.584 785.652 960.27C784.924 958.887 783.667 957.746 781.88 956.847C780.094 955.948 777.679 955.187 774.635 954.565C771.658 953.873 767.919 953.147 763.42 952.387C761.501 952.11 760.277 951.799 759.748 951.453C759.219 951.038 758.954 950.277 758.954 949.171C758.954 948.687 759.119 948.307 759.45 948.03C759.781 947.753 760.178 947.581 760.641 947.511C761.104 947.373 761.601 947.304 762.13 947.304C762.659 947.235 763.089 947.2 763.42 947.2H769.971C772.551 947.2 775.595 947.373 779.101 947.719C782.674 948.065 786.843 948.237 791.607 948.237C793.393 948.237 795.643 948.168 798.356 948.03C801.069 947.823 803.682 947.719 806.196 947.719C807.189 947.719 808.049 947.753 808.777 947.823C809.505 947.823 810.199 947.857 810.861 947.926C811.523 947.995 812.184 948.099 812.846 948.237C813.574 948.376 814.401 948.549 815.327 948.756C816.783 949.171 817.511 949.897 817.511 950.934C817.511 951.972 816.882 952.629 815.625 952.905C812.052 953.182 808.975 953.735 806.395 954.565C803.814 955.326 801.664 956.536 799.944 958.195C798.29 959.786 797.032 961.895 796.172 964.523C795.312 967.081 794.816 970.332 794.684 974.273L794.287 982.675C793.757 992.356 793.327 1000.9 792.996 1008.3C792.732 1015.63 792.5 1022.37 792.302 1028.52C792.103 1034.61 791.971 1040.35 791.905 1045.74C791.838 1051.07 791.805 1056.6 791.805 1062.34V1068.46C791.805 1070.26 791.805 1072.23 791.805 1074.37C791.871 1076.45 791.905 1078.8 791.905 1081.42V1090.03C791.905 1090.66 791.706 1091.52 791.309 1092.63C790.978 1093.66 790.383 1094.18 789.523 1094.18C788.464 1094.18 787.505 1093.84 786.644 1093.15C785.85 1092.38 784.858 1091.11 783.667 1089.31L709.727 979.667C709.065 978.906 708.602 978.319 708.337 977.904C708.139 977.489 707.676 977.281 706.948 977.281C706.352 977.281 705.955 977.662 705.757 978.422C705.624 979.183 705.558 979.944 705.558 980.704V1073.64Z" fill="black"/> <path d="M892.94 1035.68C894.395 1035.68 895.123 1035.02 895.123 1033.71C895.123 1033.09 895.09 1032.6 895.024 1032.26C894.627 1030.94 894.064 1029.04 893.337 1026.55C892.609 1024.06 891.782 1021.19 890.855 1017.94C889.929 1014.69 888.904 1011.23 887.779 1007.57C886.72 1003.84 885.628 1000.1 884.503 996.367C883.445 992.633 882.386 989.037 881.328 985.58C880.269 982.053 879.343 978.872 878.549 976.037C878.416 975.898 878.218 975.656 877.953 975.31C877.755 974.965 877.424 974.792 876.961 974.792C876.365 974.792 875.902 975.38 875.571 976.555C874.976 978.284 874.149 980.739 873.09 983.92C872.097 987.101 870.973 990.628 869.715 994.5C868.458 998.373 867.135 1002.38 865.746 1006.53C864.422 1010.68 863.165 1014.55 861.974 1018.15C860.783 1021.68 859.758 1024.75 858.897 1027.38C858.037 1029.94 857.475 1031.63 857.21 1032.46C857.078 1032.67 857.012 1032.95 857.012 1033.29C857.012 1034.88 858.037 1035.68 860.088 1035.68H892.94ZM811.159 1092.52C811.159 1091.35 811.754 1090.66 812.945 1090.45C814.07 1090.24 815.79 1089.93 818.106 1089.51C822.407 1088.55 825.98 1086.58 828.825 1083.6C831.67 1080.63 834.052 1077.24 835.971 1073.44C837.89 1069.56 839.478 1065.55 840.735 1061.4C842.058 1057.26 843.315 1053.52 844.506 1050.2L869.914 977.489C870.509 975.691 871.039 974.446 871.502 973.755C872.031 972.994 872.461 972.372 872.792 971.887C873.123 971.334 873.388 970.712 873.586 970.02C873.785 969.329 873.884 968.119 873.884 966.39C873.884 965.629 873.785 964.938 873.586 964.315C873.388 963.693 873.156 963.071 872.891 962.448C872.693 961.757 872.494 961.031 872.296 960.27C872.097 959.44 871.998 958.437 871.998 957.262C873.718 957.054 875.34 956.778 876.861 956.432C878.449 956.017 879.905 955.326 881.228 954.357C881.956 953.804 882.585 953.078 883.114 952.179C883.643 951.211 884.206 950.277 884.801 949.378C885.397 948.48 886.091 947.719 886.885 947.096C887.679 946.405 888.738 946.059 890.061 946.059C890.194 946.059 890.326 946.094 890.458 946.163C890.591 946.232 890.723 946.44 890.855 946.785C890.988 947.131 891.385 948.48 892.046 950.831C892.774 953.182 893.701 956.328 894.825 960.27C896.016 964.142 897.34 968.637 898.795 973.755C900.317 978.872 901.905 984.335 903.559 990.144C905.28 995.883 907.033 1001.86 908.819 1008.09C910.672 1014.31 912.492 1020.47 914.278 1026.55C916.065 1032.57 917.752 1038.41 919.34 1044.08C920.994 1049.68 922.516 1054.8 923.905 1059.43C925.295 1064.07 926.486 1068.11 927.478 1071.57C928.471 1074.96 929.198 1077.45 929.662 1079.04C930.389 1081.32 931.547 1083.33 933.135 1085.05C934.723 1086.78 936.477 1087.96 938.395 1088.58C940.314 1089.27 942.035 1089.65 943.556 1089.72C945.144 1089.79 946.468 1089.86 947.526 1089.93C948.651 1090 949.511 1090.24 950.107 1090.66C950.702 1091.07 951 1091.94 951 1093.25C951 1093.66 950.868 1094.01 950.603 1094.29C950.338 1094.49 950.008 1094.67 949.611 1094.81C949.214 1094.94 948.783 1095.05 948.32 1095.12C947.923 1095.12 947.593 1095.15 947.328 1095.22H938.395C937.866 1095.22 937.304 1095.22 936.708 1095.22C936.113 1095.15 935.186 1095.12 933.929 1095.12C932.738 1095.05 931.084 1095.01 928.967 1095.01C926.85 1094.94 924.038 1094.91 920.531 1094.91C916.825 1094.91 913.186 1094.98 909.613 1095.12C906.107 1095.19 902.534 1095.29 898.895 1095.43H893.833C893.304 1095.43 892.708 1095.39 892.046 1095.32C891.385 1095.32 890.756 1095.25 890.161 1095.12C889.565 1094.98 889.069 1094.74 888.672 1094.39C888.275 1094.04 888.076 1093.56 888.076 1092.94C888.076 1092.38 888.341 1091.94 888.87 1091.59C889.4 1091.24 890.028 1090.97 890.756 1090.76C891.484 1090.55 892.245 1090.41 893.039 1090.34C893.833 1090.21 894.495 1090.1 895.024 1090.03C897.273 1089.69 899.457 1089.31 901.574 1088.89C903.692 1088.41 905.776 1087.96 907.827 1087.54C909.349 1087.06 910.11 1086.2 910.11 1084.95C910.11 1084.81 910.11 1084.61 910.11 1084.33C910.11 1083.98 910.043 1083.67 909.911 1083.4L899.093 1046.26C898.961 1045.71 898.597 1045.08 898.001 1044.39C897.472 1043.7 896.81 1043.36 896.016 1043.36H855.721C854.795 1043.36 854.167 1043.53 853.836 1043.87C853.505 1044.15 853.207 1044.46 852.942 1044.81L847.782 1059.33C846.921 1061.68 846.326 1063.83 845.995 1065.76C845.664 1067.63 845.499 1069.43 845.499 1071.16C845.499 1073.23 845.697 1075.51 846.094 1078C846.425 1080.49 847.219 1082.43 848.476 1083.81C849.733 1085.19 851.189 1086.23 852.843 1086.92C854.563 1087.61 856.383 1088.1 858.302 1088.37C860.221 1088.58 861.974 1088.79 863.562 1089C865.15 1089.2 866.44 1089.51 867.433 1089.93C868.491 1090.28 869.021 1090.97 869.021 1092C869.021 1092.63 868.822 1093.28 868.425 1093.98C868.094 1094.67 867.267 1095.08 865.944 1095.22H861.676C857.773 1095.08 853.968 1094.94 850.263 1094.81C846.624 1094.6 842.819 1094.49 838.849 1094.49C834.482 1094.49 830.512 1094.63 826.939 1094.91C823.433 1095.12 819.893 1095.22 816.32 1095.22H815.029C812.449 1095.22 811.159 1094.32 811.159 1092.52ZM926.783 910.169C926.519 911.552 925.692 913.074 924.302 914.733C922.979 916.393 921.159 917.914 918.844 919.297C916.263 920.819 913.616 922.444 910.904 924.173C908.257 925.901 905.643 927.665 903.063 929.463C900.549 931.192 898.134 932.886 895.818 934.545C893.502 936.205 891.352 937.726 889.367 939.109C888.705 939.455 888.242 939.628 887.977 939.628C887.911 939.628 887.845 939.628 887.779 939.628C887.779 939.559 887.746 939.524 887.679 939.524C887.15 939.386 886.488 939.109 885.694 938.694C884.967 938.21 884.669 937.588 884.801 936.827C884.801 936.689 884.834 936.516 884.9 936.309C884.967 936.101 885.066 935.894 885.198 935.686C887.051 932.989 890.128 929.186 894.428 924.276C898.729 919.367 904.287 912.97 911.102 905.087C912.028 903.911 913.219 903.047 914.675 902.493C916.131 901.871 917.653 901.56 919.24 901.56C919.571 901.56 919.902 901.594 920.233 901.664C920.63 901.664 921.027 901.698 921.424 901.767C923.475 902.113 924.898 902.839 925.692 903.946C926.552 904.983 926.982 906.331 926.982 907.991C926.982 908.337 926.949 908.717 926.883 909.132C926.883 909.478 926.85 909.824 926.783 910.169Z" fill="black"/> <path d="M924.302 914.733C925.692 913.074 926.519 911.552 926.783 910.169C926.85 909.824 926.883 909.478 926.883 909.132C926.949 908.717 926.982 908.337 926.982 907.991C926.982 906.331 926.552 904.983 925.692 903.946C924.898 902.839 923.475 902.113 921.424 901.767C921.027 901.698 920.63 901.664 920.233 901.664C919.902 901.594 919.571 901.56 919.24 901.56C917.653 901.56 916.131 901.871 914.675 902.493C913.219 903.047 912.028 903.911 911.102 905.087C904.287 912.97 898.729 919.367 894.428 924.276C890.128 929.186 887.051 932.989 885.198 935.686C885.066 935.894 884.967 936.101 884.9 936.309C884.834 936.516 884.801 936.689 884.801 936.827C884.669 937.588 884.967 938.21 885.694 938.694C886.488 939.109 887.15 939.386 887.679 939.524C887.746 939.524 887.779 939.559 887.779 939.628H887.977C888.242 939.628 888.705 939.455 889.367 939.109C891.352 937.726 893.502 936.205 895.818 934.545C898.134 932.886 900.549 931.192 903.063 929.463C905.643 927.665 908.257 925.901 910.904 924.173C913.616 922.444 916.263 920.819 918.843 919.297C921.159 917.914 922.979 916.393 924.302 914.733Z" fill="#D8A47F"/> </svg>